<mxfile host="app.diagrams.net" modified="2024-03-05T07:48:04.223Z" agent="Mozilla/5.0 (Windows NT 10.0; Win64; x64) AppleWebKit/537.36 (KHTML, like Gecko) Chrome/122.0.0.0 Safari/537.36" version="24.0.1" etag="SaV_pf4mY5gqeFchziBR" type="github">
  <diagram name="Page-1" id="CSI2NJ1RcBczM4Yw4ZIi">
    <mxGraphModel>
      <root>
        <mxCell id="0" />
        <mxCell id="1" parent="0" />
      </root>
    </mxGraphModel>
  </diagram>
</mxfile>
